<svg width="4032" height="1095" viewBox="0 0 4032 1095" fill="none" xmlns="http://www.w3.org/2000/svg">
<path d="M885.27 571.094C885.27 745.744 763.472 861.776 622.579 861.776C567.357 861.776 524.522 845.961 490.632 817.769V985.543C490.632 1034.02 537.94 1042.96 537.94 1071.15V1075.62C537.94 1088 527.79 1094.7 511.963 1094.7H307.935C292.108 1094.7 281.958 1088 281.958 1075.62V1071.15C281.958 1042.96 325.998 1034.02 325.998 985.543V478.612C325.998 432.371 274.217 429.105 274.217 399.71V394.037C274.217 382.692 283.163 373.753 296.753 367.049L423.023 305.165C454.505 289.35 465.859 303.962 465.859 325.449L464.655 372.722C495.104 325.449 551.53 298.289 621.375 298.289C752.118 298.289 885.098 393.006 885.098 570.922L885.27 571.094ZM719.604 638.65C719.604 496.661 671.092 346.937 581.98 346.937C534.671 346.937 497.513 384.067 490.632 438.215V653.433C490.632 742.477 545.853 813.472 605.548 813.472C677.629 813.472 719.432 751.588 719.432 638.822L719.604 638.65Z" fill="#112444"/>
<path d="M1365.87 401.085C1365.87 448.358 1347.81 490.129 1293.79 490.129C1205.89 490.129 1245.28 393.178 1184.38 393.178C1140.34 393.178 1124.69 455.062 1124.69 517.118V742.478C1124.69 789.75 1181.11 798.861 1181.11 827.052V831.522C1181.11 843.899 1170.96 850.603 1156.34 850.603H947.84C932.013 850.603 921.863 843.899 921.863 831.522V827.052C921.863 798.861 965.903 789.922 965.903 742.478V478.784C965.903 429.277 914.122 425.839 914.122 397.647V393.178C914.122 381.833 923.067 372.894 937.862 366.19L1073.08 303.103C1099.05 290.726 1109.2 304.306 1109.2 325.621V410.196C1133.98 338.17 1186.96 298.633 1262.48 298.633C1329.06 298.633 1366.22 343.671 1366.22 401.085H1365.87Z" fill="#112444"/>
<path d="M1904.56 691.596C1897.86 756.917 1821.13 861.776 1675.76 861.776C1519.04 861.776 1402.92 749.182 1402.92 575.563C1402.92 412.259 1527.99 298.461 1675.76 298.461C1823.54 298.461 1888.91 384.067 1888.91 458.5C1888.91 496.833 1869.81 519.352 1839.37 532.76L1589.06 646.558C1618.31 708.442 1670.26 744.541 1737.87 744.541C1797.56 744.541 1845.04 714.114 1866.37 679.219C1879.96 662.373 1905.77 667.873 1904.74 691.596H1904.56ZM1559.64 497.865C1559.64 532.76 1563.08 565.421 1570.83 594.816L1716.19 521.587C1736.49 511.445 1745.44 492.364 1745.44 468.642C1745.44 428.074 1716.19 348.14 1655.29 348.14C1594.39 348.14 1559.47 412.431 1559.47 498.037L1559.64 497.865Z" fill="#112444"/>
<path d="M2499.24 447.155V985.544C2499.24 1034.02 2543.11 1044.16 2543.11 1072.35V1075.79C2543.11 1088.17 2534.16 1094.87 2518.33 1094.87H2317.58C2301.75 1094.87 2291.6 1088.17 2291.6 1075.79V1072.35C2291.6 1044.16 2340.11 1034.02 2340.11 985.544V815.363C2305.19 845.79 2256.68 861.604 2205.93 861.604C2068.3 861.604 1941 760.184 1941 578.83C1941 412.087 2062.8 298.29 2207.13 298.29C2272.5 298.29 2322.22 320.808 2357.14 357.939V333.185C2357.14 311.87 2375.21 299.321 2404.45 304.994L2522.81 325.278C2538.63 328.716 2547.58 337.655 2547.58 353.469V356.907C2547.58 378.223 2499.07 391.803 2499.07 446.983L2499.24 447.155ZM2340.28 692.799V494.599C2340.28 415.697 2282.82 346.937 2216.25 346.937C2149.67 346.937 2104.6 407.79 2102.36 512.476C2097.89 636.416 2149.67 809.863 2243.26 813.301C2289.53 813.301 2340.28 772.732 2340.28 692.799Z" fill="#112444"/>
<path d="M3233.59 824.758C3233.59 850.714 3196.43 857.419 3133.3 857.419C3070.16 857.419 3036.27 839.369 3033 784.189C3002.55 833.696 2947.33 861.888 2869.57 861.888C2753.45 861.888 2659.87 781.955 2659.87 627.589V437.124C2659.87 387.617 2616 376.272 2616 351.518V348.08C2616 336.735 2624.95 326.593 2639.74 324.358L2781.84 303.043C2811.08 299.605 2828.11 304.246 2828.11 323.327L2824.67 644.435C2824.67 749.122 2856.15 797.598 2918.26 797.598C2972.45 797.598 3015.28 745.856 3015.28 665.751V437.124C3015.28 387.617 2970.21 376.272 2970.21 351.518V348.08C2970.21 336.735 2979.16 326.593 2992.75 324.358L3137.08 303.043C3166.33 299.605 3179.92 304.246 3179.92 323.327V735.714C3179.92 824.758 3234.11 782.986 3234.11 824.758H3233.59Z" fill="#112444"/>
<path d="M3747.64 691.595C3740.93 756.917 3664.21 861.776 3518.84 861.776C3362.12 861.776 3246 749.181 3246 575.563C3246 412.258 3371.07 298.461 3518.84 298.461C3666.61 298.461 3731.99 384.067 3731.99 458.499C3731.99 496.833 3712.89 519.352 3682.44 532.76L3432.14 646.557C3461.38 708.441 3513.34 744.54 3580.94 744.54C3640.64 744.54 3687.95 714.114 3709.45 679.218C3723.04 662.372 3748.85 667.873 3747.81 691.595H3747.64ZM3402.72 497.864C3402.72 532.76 3406.16 565.421 3414.07 594.816L3559.44 521.586C3579.74 511.444 3588.69 492.364 3588.69 468.641C3588.69 428.073 3559.44 348.14 3498.54 348.14C3437.64 348.14 3402.72 412.43 3402.72 498.036V497.864Z" fill="#112444"/>
<path d="M3772.15 831.35V826.881C3772.15 798.689 3816.02 789.75 3816.02 742.306V188.102C3816.02 137.392 3772.15 126.218 3772.15 102.496V98.0266C3772.15 86.8531 3781.1 81.1804 3794.69 75.5077L3936.78 5.71651C3966.03 -8.89495 3983.06 6.9198 3983.06 26.0007V742.478C3983.06 789.75 4031.57 798.861 4031.57 827.052V831.522C4031.57 842.695 4020.22 850.603 4005.6 850.603H3798.13C3782.3 850.603 3772.15 842.695 3772.15 831.522V831.35Z" fill="#112444"/>
<path d="M103.046 470.877C159.957 470.877 206.093 424.776 206.093 367.909C206.093 311.041 159.957 264.941 103.046 264.941C46.1354 264.941 0 311.041 0 367.909C0 424.776 46.1354 470.877 103.046 470.877Z" fill="#0287B8"/>
<path d="M103.046 850.603C159.957 850.603 206.093 804.502 206.093 747.635C206.093 690.767 159.957 644.667 103.046 644.667C46.1354 644.667 0 690.767 0 747.635C0 804.502 46.1354 850.603 103.046 850.603Z" fill="#0287B8"/>
</svg>
